<svg xmlns="http://www.w3.org/2000/svg" xmlns:xlink="http://www.w3.org/1999/xlink" viewBox="0 0 61 52.5" version="1.1" x="0px" y="0px"><title>50 -AC Unit- (Outline)</title><desc>Created with Sketch.</desc><g stroke="none" stroke-width="1" fill="none" fill-rule="evenodd" stroke-linecap="round" stroke-linejoin="round"><g transform="translate(-1200.000000, -897.000000)" stroke="#000000" stroke-width="2"><g transform="translate(1201.000000, 898.000000)"><path d="M2.0079,0 L56.0079,0 C57.1119,0 58.0079,0.895 58.0079,2 L58.0079,22 C58.0079,23.105 57.1119,24 56.0079,24 L2.0079,24 C0.9029,24 0.0079,23.105 0.0079,22 L0.0079,2 C0.0079,0.895 0.9029,0 2.0079,0 L2.0079,0 Z"/><path d="M25.0079,7 L33.0079,7"/><path d="M4.0079,20 L54.0079,20"/><path d="M4.0079,16 L54.0079,16"/><path d="M29.0079,38 C31.6749,36.618 31.6749,34.382 29.0079,33 C26.3409,31.618 26.3409,29.382 29.0079,28"/><path d="M18.0079,40 C20.6749,38.618 20.6749,36.382 18.0079,35 C15.3409,33.618 15.3409,31.382 18.0079,30"/><path d="M40.0079,40 C42.6749,38.618 42.6749,36.382 40.0079,35 C37.3409,33.618 37.3409,31.382 40.0079,30"/></g></g></g><text x="0" y="57" fill="#000000" font-size="5px" font-weight="bold" font-family="'Helvetica Neue', Helvetica, Arial-Unicode, Arial, Sans-serif">Created by Smashicons</text><text x="0" y="62" fill="#000000" font-size="5px" font-weight="bold" font-family="'Helvetica Neue', Helvetica, Arial-Unicode, Arial, Sans-serif">from the Noun Project</text></svg>